<svg xmlns="http://www.w3.org/2000/svg" width="720" height="520" viewBox="0 0 720 520" role="img" aria-labelledby="title desc">
  <title id="title">תשובת AI אינה מקור</title><desc id="desc">איור שמוביל מתשובת AI לפתיחת המקור ובדיקת הטענה.</desc>
  <rect width="720" height="520" rx="32" fill="#0c1420"/>
  <g stroke="#8fc7ff" stroke-opacity=".14"><path d="M90 0V520M180 0V520M270 0V520M360 0V520M450 0V520M540 0V520M630 0V520"/><path d="M0 104H720M0 208H720M0 312H720M0 416H720"/></g>
  <rect x="60" y="70" width="260" height="250" rx="26" fill="#111b2a" stroke="#8fc7ff" stroke-opacity=".35"/>
  <rect x="400" y="70" width="260" height="250" rx="26" fill="#11111f" stroke="#d9b36a" stroke-opacity=".5"/>
  <g stroke-linecap="round" fill="none"><path d="M110 130H265M110 175H235M110 220H205" stroke="#8fc7ff" stroke-width="18" opacity=".7"/><path d="M340 195H380" stroke="#e2c47f" stroke-width="10"/><path d="M368 178L386 195L368 212" stroke="#e2c47f" stroke-width="10" stroke-linejoin="round"/><circle cx="530" cy="175" r="58" stroke="#8fc7ff" stroke-width="10"/><path d="M570 217L614 261" stroke="#8fc7ff" stroke-width="12"/></g>
  <text x="660" y="390" direction="rtl" text-anchor="start" fill="#f6f8fc" font-family="Arial, sans-serif" font-size="40" font-weight="800">תשובה אינה מקור</text>
  <text x="660" y="438" direction="rtl" text-anchor="start" fill="#aab3c5" font-family="Arial, sans-serif" font-size="25">פותחים את המקור ובודקים את הטענה</text>
</svg>
