<svg xmlns="http://www.w3.org/2000/svg" viewBox="0 0 1200 720" role="img" aria-labelledby="title desc">
  <title id="title">Digital shekel claim map</title>
  <desc id="desc">A text-free illustration separating digital currency research from spending-control claims.</desc>
  <rect width="1200" height="720" fill="#0b1118"/>
  <circle cx="975" cy="180" r="230" fill="#1f2b3a" opacity="0.55"/>
  <circle cx="190" cy="640" r="260" fill="#182820" opacity="0.45"/>
  <g fill="none" stroke="#314254" stroke-width="2" opacity="0.65">
    <path d="M0 120H1200"/>
    <path d="M0 240H1200"/>
    <path d="M0 360H1200"/>
    <path d="M0 480H1200"/>
    <path d="M0 600H1200"/>
    <path d="M200 0V720"/>
    <path d="M400 0V720"/>
    <path d="M600 0V720"/>
    <path d="M800 0V720"/>
    <path d="M1000 0V720"/>
  </g>
  <g transform="translate(120 150)">
    <circle cx="165" cy="165" r="150" fill="#f3efe6" stroke="#d9b36a" stroke-width="8"/>
    <circle cx="165" cy="165" r="112" fill="#111b25" stroke="#314254" stroke-width="5"/>
    <path d="M165 82v166" stroke="#d9b36a" stroke-width="20" stroke-linecap="round"/>
    <path d="M112 130c35-34 118-34 118 18 0 50-80 40-112 73" fill="none" stroke="#d9b36a" stroke-width="20" stroke-linecap="round"/>
    <path d="M112 206h116" stroke="#d9b36a" stroke-width="20" stroke-linecap="round"/>
  </g>
  <g transform="translate(485 190)">
    <rect x="0" y="0" width="280" height="180" rx="28" fill="#172033" stroke="#314254" stroke-width="4"/>
    <rect x="30" y="42" width="220" height="26" rx="13" fill="#d9b36a" opacity="0.85"/>
    <rect x="30" y="92" width="90" height="54" rx="14" fill="#91a1b2" opacity="0.55"/>
    <path d="M160 114h72M160 140h48" stroke="#eef3f8" stroke-width="11" stroke-linecap="round" opacity="0.85"/>
  </g>
  <path d="M405 315C455 250 470 250 508 250" fill="none" stroke="#d9b36a" stroke-width="14" stroke-linecap="round"/>
  <path d="M767 280C830 282 852 320 882 375" fill="none" stroke="#d9b36a" stroke-width="14" stroke-linecap="round"/>
  <g transform="translate(860 365)">
    <path d="M150 0l126 48v102c0 88-54 152-126 186C78 302 24 238 24 150V48L150 0z" fill="#111b25" stroke="#d9b36a" stroke-width="7"/>
    <path d="M92 155l38 38 84-96" fill="none" stroke="#91a1b2" stroke-width="18" stroke-linecap="round" stroke-linejoin="round"/>
    <circle cx="150" cy="150" r="104" fill="none" stroke="#314254" stroke-width="5" opacity="0.9"/>
  </g>
  <g transform="translate(455 455)">
    <rect x="0" y="0" width="330" height="130" rx="24" fill="#f3efe6" stroke="#d9b36a" stroke-width="4"/>
    <path d="M40 45h230M40 74h184M40 103h128" stroke="#172033" stroke-width="12" stroke-linecap="round" opacity="0.9"/>
    <circle cx="268" cy="88" r="38" fill="none" stroke="#b0473c" stroke-width="8"/>
  </g>
</svg>
