<svg xmlns="http://www.w3.org/2000/svg" width="720" height="520" viewBox="0 0 720 520" role="img" aria-labelledby="title desc">
  <title id="title">מסמך Gateway אמיתי</title><desc id="desc">איור שמפריד בין קיום מסמך לבין הוכחת המסקנה המיוחסת לו.</desc>
  <rect width="720" height="520" rx="32" fill="#0c1420"/>
  <g stroke="#8fc7ff" stroke-opacity=".14"><path d="M90 0V520M180 0V520M270 0V520M360 0V520M450 0V520M540 0V520M630 0V520"/><path d="M0 104H720M0 208H720M0 312H720M0 416H720"/></g>
  <rect x="60" y="60" width="290" height="280" rx="26" fill="#f0e6d2" stroke="#d9b36a" stroke-opacity=".6"/>
  <g stroke="#6f737b" stroke-width="13" stroke-linecap="round"><path d="M108 125H292"/><path d="M108 175H270"/><path d="M108 225H305"/><path d="M108 275H240"/></g>
  <rect x="430" y="60" width="230" height="280" rx="26" fill="#11111f" stroke="#d9b36a" stroke-opacity=".5"/>
  <g fill="none" stroke-linecap="round"><circle cx="545" cy="190" r="74" stroke="#58779f" stroke-width="10"/><path d="M475 190Q545 120 615 190Q545 260 475 190Z" stroke="#e2c47f" stroke-width="9"/><circle cx="545" cy="190" r="24" fill="#d9b36a" stroke="#d9b36a"/></g>
  <text x="660" y="400" direction="rtl" text-anchor="start" fill="#f6f8fc" font-family="Arial, sans-serif" font-size="38" font-weight="800">מסמך Gateway אמיתי</text>
  <text x="660" y="448" direction="rtl" text-anchor="start" fill="#aab3c5" font-family="Arial, sans-serif" font-size="24">בודקים את המקור, לא מדלגים להוכחה</text>
</svg>
